<svg xmlns="http://www.w3.org/2000/svg" x="0px" y="0px"
width="100" height="100"
viewBox="0 0 172 172"
style=" fill:#000000;"><defs><linearGradient x1="86" y1="8.10516" x2="86" y2="163.44166" gradientUnits="userSpaceOnUse" id="color-1_MZGAhM8F4fHi_gr1"><stop offset="0" stop-color="#e090f0"></stop><stop offset="1" stop-color="#05bdf5"></stop></linearGradient></defs><g fill="none" fill-rule="nonzero" stroke="none" stroke-width="1" stroke-linecap="butt" stroke-linejoin="miter" stroke-miterlimit="10" stroke-dasharray="" stroke-dashoffset="0" font-family="none" font-weight="none" font-size="none" text-anchor="none" style="mix-blend-mode: normal"><path d="M0,172v-172h172v172z" fill="none"></path><g fill="url(#color-1_MZGAhM8F4fHi_gr1)"><path d="M164.2862,71.55469h-9.08308v-14.15641c0.03037,-2.47271 -0.93109,-4.85453 -2.66953,-6.61324c-1.73844,-1.7587 -4.10896,-2.7477 -6.58186,-2.74598h-1.01823c-1.58355,-0.00159 -3.14154,0.39918 -4.52777,1.1647c-0.75096,-4.54302 -4.67628,-7.87727 -9.28095,-7.88345h-1.01823c-5.18654,0 -9.50502,4.17268 -9.50502,9.35922v20.53922h-69.20312v-20.53922c0,-5.18654 -4.31915,-9.35922 -9.50703,-9.35922h-1.01823c-4.60456,0.00615 -8.52983,3.34022 -9.28095,7.88311c-1.38593,-0.76498 -2.94338,-1.16562 -4.52642,-1.16436h-1.01823c-2.47283,-0.00172 -4.84329,0.9873 -6.58162,2.74602c-1.73833,1.75872 -2.69964,4.14055 -2.66909,6.6132v14.15641h-9.08308c-1.49751,0.03987 -2.68717,1.27182 -2.67473,2.7698v23.35102c-0.01243,1.49799 1.17723,2.72993 2.67473,2.7698h9.08308v14.15641c-0.03055,2.47265 0.93075,4.85447 2.66909,6.6132c1.73833,1.75872 4.10879,2.74774 6.58162,2.74602h1.01823c1.58349,0.00148 3.14143,-0.39915 4.52777,-1.16436c0.75111,4.54289 4.67638,7.87696 9.28095,7.88311h1.01688c5.18654,0 9.50703,-4.17268 9.50703,-9.35922v-20.53922h69.20313v20.53922c0,5.18654 4.31848,9.35922 9.50502,9.35922h1.01823c4.60467,-0.00617 8.52998,-3.34042 9.28095,-7.88345c1.38622,0.76551 2.94422,1.16628 4.52777,1.1647h1.01823c2.4729,0.00171 4.84342,-0.98728 6.58186,-2.74598c1.73844,-1.7587 2.6999,-4.14053 2.66953,-6.61324v-14.15641h9.08308c1.49751,-0.03987 2.68717,-1.27182 2.67473,-2.7698v-23.35102c0.01243,-1.49799 -1.17723,-2.72993 -2.67473,-2.7698zM75.25,76.59375h8.0625v18.8125h-8.0625zM69.875,95.40625h-8.0625v-18.8125h8.0625zM88.6875,76.59375h8.0625v18.8125h-8.0625zM102.125,76.59375h8.0625v18.8125h-8.0625zM10.41406,95.07031v-18.14062h6.38281v18.14063zM31.24219,114.55469c0,2.2264 -1.80485,4.03125 -4.03125,4.03125h-1.00781c-2.2264,0 -4.03125,-1.80485 -4.03125,-4.03125v-57.10937c0,-2.2264 1.80485,-4.03125 4.03125,-4.03125h1.00781c2.2264,0 4.03125,1.80485 4.03125,4.03125zM41.89141,125.30469h-1.01823c-1.0523,0.00476 -2.06194,-0.41558 -2.79997,-1.16569c-0.73803,-0.75011 -1.14192,-1.76644 -1.12008,-2.81853v-70.64094c-0.02184,-1.05232 0.38223,-2.06886 1.12055,-2.81901c0.73832,-0.75015 1.74831,-1.17033 2.80085,-1.16521h1.01688c2.2229,0 4.13203,1.76166 4.13203,3.98422v22.42752c-0.25649,0.21113 -0.38391,0.54101 -0.33594,0.86974v24.04641c-0.04797,0.32873 0.07945,0.65861 0.33594,0.86974v22.42752c0,2.22256 -1.90779,3.98422 -4.13203,3.98422zM51.39844,76.59375h5.03906v18.8125h-5.03906zM120.60156,95.40625h-5.03906v-18.8125h5.03906zM135.04688,121.27344c0,2.2264 -1.80485,4.03125 -4.03125,4.03125h-1.00781c-2.2264,0 -4.03125,-1.80485 -4.03125,-4.03125v-70.54687c0,-2.2264 1.80485,-4.03125 4.03125,-4.03125h1.00781c2.2264,0 4.03125,1.80485 4.03125,4.03125zM149.82813,114.55469c0,2.2264 -1.80485,4.03125 -4.03125,4.03125h-1.00781c-2.2264,0 -4.03125,-1.80485 -4.03125,-4.03125v-57.10937c0,-2.2264 1.80485,-4.03125 4.03125,-4.03125h1.00781c2.2264,0 4.03125,1.80485 4.03125,4.03125zM161.58594,95.07031h-6.38281v-18.14062h6.38281z"></path></g></g></svg>