<svg xmlns="http://www.w3.org/2000/svg" x="0px" y="0px"
width="64" height="64"
viewBox="0 0 172 172"
style=" fill:#000000;"><defs><linearGradient x1="88.6875" y1="53.75" x2="88.6875" y2="61.14063" gradientUnits="userSpaceOnUse" id="color-1_123169_gr1"><stop offset="0" stop-color="#fcf3fd"></stop><stop offset="1" stop-color="#6edafc"></stop></linearGradient><linearGradient x1="98.09375" y1="40.19962" x2="98.09375" y2="48.54969" gradientUnits="userSpaceOnUse" id="color-2_123169_gr2"><stop offset="0" stop-color="#fcf3fd"></stop><stop offset="1" stop-color="#6edafc"></stop></linearGradient><linearGradient x1="79.28125" y1="40.25606" x2="79.28125" y2="48.31856" gradientUnits="userSpaceOnUse" id="color-3_123169_gr3"><stop offset="0" stop-color="#fcf3fd"></stop><stop offset="1" stop-color="#6edafc"></stop></linearGradient><linearGradient x1="88.6875" y1="13.4375" x2="88.6875" y2="161.25" gradientUnits="userSpaceOnUse" id="color-4_123169_gr4"><stop offset="0" stop-color="#e090f0"></stop><stop offset="1" stop-color="#05bdf5"></stop></linearGradient></defs><g fill="none" fill-rule="nonzero" stroke="none" stroke-width="1" stroke-linecap="butt" stroke-linejoin="miter" stroke-miterlimit="10" stroke-dasharray="" stroke-dashoffset="0" font-family="none" font-weight="none" font-size="none" text-anchor="none" style="mix-blend-mode: normal"><path d="M0,172v-172h172v172z" fill="none"></path><g><path d="M88.6875,61.8125c4.45319,0 8.0625,-3.60931 8.0625,-8.0625h-16.125c0,4.45319 3.60931,8.0625 8.0625,8.0625z" fill="url(#color-1_123169_gr1)"></path><path d="M98.09375,40.3125c-2.2264,0 -4.03125,1.80485 -4.03125,4.03125c0,2.2264 1.80485,4.03125 4.03125,4.03125c2.2264,0 4.03125,-1.80485 4.03125,-4.03125c0,-2.2264 -1.80485,-4.03125 -4.03125,-4.03125z" fill="url(#color-2_123169_gr2)"></path><path d="M79.28125,40.3125c-2.2264,0 -4.03125,1.80485 -4.03125,4.03125c0,2.2264 1.80485,4.03125 4.03125,4.03125c2.2264,0 4.03125,-1.80485 4.03125,-4.03125c0,-2.2264 -1.80485,-4.03125 -4.03125,-4.03125z" fill="url(#color-3_123169_gr3)"></path><path d="M137.0625,129h-13.4375v-13.4375h1.00513c4.4075,0 8.39844,-2.06131 10.94888,-5.65181c2.55312,-3.59319 3.19006,-8.03831 1.73881,-12.20125l-7.1165,-20.46263c-3.28144,-9.43581 -9.72069,-17.33437 -18.20244,-22.52125c0.1075,-0.39506 0.22038,-0.79012 0.30637,-1.19325c4.91813,-0.98363 8.63225,-5.332 8.63225,-10.53231c0,-5.20031 -3.71412,-9.54869 -8.62956,-10.535c-2.37306,-10.86288 -12.05613,-19.0275 -23.62044,-19.0275c-11.56431,0 -21.24737,8.16463 -23.62044,19.0275c-4.91544,0.98631 -8.62956,5.33469 -8.62956,10.535c0,5.13313 3.62275,9.42506 8.44144,10.48663c-9.47075,5.06862 -16.85869,13.59069 -20.39544,23.76287l-7.1165,20.46262c-1.44856,4.16294 -0.81431,8.60806 1.73881,12.20125c2.55313,3.58781 6.54406,5.64913 10.95156,5.64913h1.00512v13.4375h-10.75c-8.89294,0 -16.125,7.23206 -16.125,16.125c0,8.89294 7.23206,16.125 16.125,16.125h96.75c8.89294,0 16.125,-7.23206 16.125,-16.125c0,-8.89294 -7.23206,-16.125 -16.125,-16.125zM112.875,38.37213c1.59906,0.93256 2.6875,2.64719 2.6875,4.62787c0,1.98069 -1.08844,3.69531 -2.6875,4.62788zM64.5,47.62788c-1.59906,-0.93256 -2.6875,-2.64719 -2.6875,-4.62788c0,-1.98069 1.08844,-3.69531 2.6875,-4.62787zM69.875,37.625c0,-10.37375 8.44144,-18.8125 18.8125,-18.8125c10.37106,0 18.8125,8.43875 18.8125,18.8125v10.75c0,10.37375 -8.44144,18.8125 -18.8125,18.8125c-10.37106,0 -18.8125,-8.43875 -18.8125,-18.8125zM50.05738,110.1875c-2.64181,0 -5.03906,-1.23625 -6.56825,-3.39163c-1.53188,-2.15537 -1.9135,-4.82406 -1.04544,-7.32344l7.1165,-20.45994c1.53187,-4.40212 3.8915,-8.44681 6.88269,-11.95131c3.27875,5.633 7.91469,10.41675 13.42944,13.72237l2.76006,-4.61175c-5.14119,-3.07988 -9.417,-7.65669 -12.25769,-13.05587c1.97263,-1.72269 4.10381,-3.27069 6.40163,-4.558c3.85656,8.256 12.21469,14.00456 21.91119,14.00456c9.21006,0 17.22687,-5.17612 21.31188,-12.76831c2.19569,1.419 4.20325,3.07181 6.0415,4.88856c-2.77081,4.64937 -6.52794,8.58119 -11.08863,11.36275l2.79769,4.58756c4.81063,-2.93475 8.89563,-6.93106 12.01581,-11.67181c2.26019,3.03687 4.08769,6.40431 5.35619,10.05125l7.1165,20.45994c0.86806,2.49938 0.48913,5.16806 -1.04544,7.32344c-1.52381,2.15538 -3.92106,3.39163 -6.56287,3.39163h-33.25513v-24.1875c0,-1.48081 1.204,-2.6875 2.6875,-2.6875c1.4835,0 2.6875,1.20669 2.6875,2.6875v8.0625c0,1.48619 1.20131,2.6875 2.6875,2.6875h18.8125v-5.375h-16.125v-5.375c0,-4.44513 -3.61738,-8.0625 -8.0625,-8.0625c-2.07206,0 -3.94525,0.80894 -5.375,2.09625c-1.42975,-1.29 -3.30294,-2.09625 -5.375,-2.09625c-4.44513,0 -8.0625,3.61737 -8.0625,8.0625v5.375h-16.125v5.375h18.8125c1.48619,0 2.6875,-1.20131 2.6875,-2.6875v-8.0625c0,-1.48081 1.204,-2.6875 2.6875,-2.6875c1.4835,0 2.6875,1.20669 2.6875,2.6875v24.1875zM137.0625,155.875h-44.45125c2.56388,-2.85681 4.13875,-6.61662 4.13875,-10.75c0,-4.13338 -1.57487,-7.89319 -4.13875,-10.75h17.57625v-5.375h-29.5625h-16.125v5.375h16.125c5.92863,0 10.75,4.82137 10.75,10.75c0,5.92863 -4.82137,10.75 -10.75,10.75h-40.3125c-5.92862,0 -10.75,-4.82137 -10.75,-10.75c0,-5.92863 4.82138,-10.75 10.75,-10.75h16.125v-18.8125h61.8125v18.8125h18.8125c5.92863,0 10.75,4.82137 10.75,10.75c0,5.92863 -4.82137,10.75 -10.75,10.75z" fill="url(#color-4_123169_gr4)"></path></g></g></svg>