<svg xmlns="http://www.w3.org/2000/svg" x="0px" y="0px"
width="64" height="64"
viewBox="0 0 172 172"
style=" fill:#000000;"><defs><linearGradient x1="86" y1="14.10938" x2="86" y2="159.20481" gradientUnits="userSpaceOnUse" id="color-1_52947_gr1"><stop offset="0" stop-color="#e090f0"></stop><stop offset="1" stop-color="#05bdf5"></stop></linearGradient><linearGradient x1="86.00269" y1="25.86719" x2="86.00269" y2="43.33594" gradientUnits="userSpaceOnUse" id="color-2_52947_gr2"><stop offset="0" stop-color="#fcf3fd"></stop><stop offset="1" stop-color="#6edafc"></stop></linearGradient><linearGradient x1="29.5625" y1="25.86719" x2="29.5625" y2="43.33594" gradientUnits="userSpaceOnUse" id="color-3_52947_gr3"><stop offset="0" stop-color="#fcf3fd"></stop><stop offset="1" stop-color="#6edafc"></stop></linearGradient><linearGradient x1="142.4375" y1="25.86719" x2="142.4375" y2="43.33594" gradientUnits="userSpaceOnUse" id="color-4_52947_gr4"><stop offset="0" stop-color="#fcf3fd"></stop><stop offset="1" stop-color="#6edafc"></stop></linearGradient></defs><g fill="none" fill-rule="nonzero" stroke="none" stroke-width="1" stroke-linecap="butt" stroke-linejoin="miter" stroke-miterlimit="10" stroke-dasharray="" stroke-dashoffset="0" font-family="none" font-weight="none" font-size="none" text-anchor="none" style="mix-blend-mode: normal"><path d="M0,172v-172h172v172z" fill="none"></path><g><path d="M150.50269,24.1875v0c-0.00269,-4.44513 -3.62006,-8.0625 -8.06519,-8.0625c-4.44513,0 -8.0625,3.61737 -8.0625,8.0625v10.75h-5.74587c-0.559,-2.1715 -1.763,-4.13875 -3.53406,-5.60075c-2.48056,-2.05056 -5.74319,-2.85681 -8.94669,-2.26288c-4.03394,0.77669 -7.14338,3.89956 -8.213,7.86362h-8.49519c0,-7.40944 -6.02806,-13.4375 -13.4375,-13.4375c-7.40944,0 -13.4375,6.02806 -13.4375,13.4375h-8.33394c-0.52138,-2.29512 -1.7845,-4.36987 -3.63888,-5.90444c-2.47787,-2.04788 -5.7405,-2.87294 -8.944,-2.2575c-4.13606,0.7955 -7.30194,4.05813 -8.29094,8.16194h-5.73244v-10.75c0,-4.44513 -3.61738,-8.0625 -8.0625,-8.0625c-4.44513,0 -8.0625,3.61737 -8.0625,8.0625v0c-2.96431,0 -5.375,2.41337 -5.375,5.375v16.125c0,2.96162 2.41069,5.375 5.375,5.375v0c0,4.44512 3.61737,8.0625 8.0625,8.0625c4.44512,0 8.0625,-3.61738 8.0625,-8.0625v-10.75h5.375v21.5c0,7.40944 6.03075,13.4375 13.44019,13.4375h18.80981v26.34825l-54.14506,34.45644c-2.42144,1.54262 -4.09844,3.9345 -4.72194,6.73756c-0.62081,2.80575 -0.11556,5.68138 1.42438,8.1055c1.98875,3.1175 5.38038,4.97725 9.07837,4.97725c2.0425,0 4.03394,-0.5805 5.76469,-1.67969l56.48588,-35.94531h12.98869v26.41813c0,5.97431 4.46662,10.88975 10.17488,11.19344c0.19619,0.00806 0.387,0.01344 0.5805,0.01344c2.76813,0 5.37769,-1.03737 7.396,-2.95625c2.1285,-2.01831 3.34862,-4.859 3.34862,-7.79375v-34.9375c0,-7.40944 -6.02537,-13.4375 -13.43481,-13.4375h-13.44019v-21.5h18.81519c7.40944,0 13.43481,-6.02806 13.43481,-13.4375v-21.5h5.375v10.75c0,4.44512 3.61738,8.0625 8.0625,8.0625c4.44512,0 8.0625,-3.61738 8.0625,-8.0625h0.00269c2.96431,0 5.37231,-2.41069 5.37231,-5.375v-16.125c0,-2.96431 -2.408,-5.375 -5.37231,-5.375zM32.25,51.0625c0,1.4835 -1.204,2.6875 -2.6875,2.6875c-1.4835,0 -2.6875,-1.204 -2.6875,-2.6875v-26.875c0,-1.4835 1.204,-2.6875 2.6875,-2.6875c1.4835,0 2.6875,1.204 2.6875,2.6875zM86.00269,26.875c4.44513,0 8.0625,3.61737 8.0625,8.0625c0,4.44512 -3.61737,8.0625 -8.0625,8.0625c-4.44513,0 -8.0625,-3.61738 -8.0625,-8.0625c0,-4.44513 3.61738,-8.0625 8.0625,-8.0625zM73.70469,40.3125c2.08012,4.73806 6.80206,8.0625 12.298,8.0625c5.49594,0 10.21788,-3.32444 12.298,-8.0625h9.19931v13.4375h-43v-13.4375zM29.76406,149.6615c-2.43488,1.54531 -5.88294,0.76325 -7.42019,-1.65013c-1.59369,-2.49938 -0.85194,-5.82919 1.64744,-7.42019l51.60538,-32.83856c0.83312,3.71144 3.21694,6.80475 6.42044,8.65644zM123.625,61.8125c0,4.44513 -3.61469,8.0625 -8.05981,8.0625h-24.19019v32.25h18.81519c4.44513,0 8.05981,3.61737 8.05981,8.0625v34.9375c0,1.48888 -0.59663,2.87294 -1.67431,3.89687c-1.08038,1.02931 -2.51281,1.548 -3.99362,1.47006c-2.80038,-0.14781 -5.08206,-2.76006 -5.08206,-5.82381v-26.41813c0,-2.96431 -2.408,-5.375 -5.37231,-5.375h-13.4375c-4.44512,0 -8.06519,-3.61737 -8.06519,-8.0625v-34.9375h-24.18481c-4.44512,0 -8.06519,-3.61737 -8.06519,-8.0625v-21.5v-2.6875c0,-2.70631 1.84363,-5.10088 4.28656,-5.5685c0.37088,-0.06987 0.73638,-0.1075 1.0965,-0.1075c1.25238,0 2.43487,0.42194 3.41044,1.22819c1.24431,1.02662 1.9565,2.53969 1.9565,4.1495v16.42331c0,2.96431 2.41338,5.375 5.37769,5.375h43c2.96431,0 5.37231,-2.41069 5.37231,-5.375v-15.82669c0,-2.70631 1.84363,-5.10088 4.28656,-5.5685c1.64475,-0.30906 3.25187,0.08331 4.51231,1.12338c1.23894,1.02662 1.95112,2.537 1.95112,4.14681zM145.125,51.0625c0,1.4835 -1.204,2.6875 -2.6875,2.6875c-1.4835,0 -2.6875,-1.204 -2.6875,-2.6875v-26.875c0,-1.4835 1.204,-2.6875 2.6875,-2.6875c1.4835,0 2.6875,1.204 2.6875,2.6875z" fill="url(#color-1_52947_gr1)"></path><path d="M86.00269,26.875c-4.4528,0 -8.0625,3.6097 -8.0625,8.0625c0,4.4528 3.6097,8.0625 8.0625,8.0625c4.4528,0 8.0625,-3.6097 8.0625,-8.0625c0,-4.4528 -3.6097,-8.0625 -8.0625,-8.0625z" fill="url(#color-2_52947_gr2)"></path><path d="M32.25,51.0625c0,1.4835 -1.204,2.6875 -2.6875,2.6875v0c-1.4835,0 -2.6875,-1.204 -2.6875,-2.6875v-26.875c0,-1.4835 1.204,-2.6875 2.6875,-2.6875v0c1.4835,0 2.6875,1.204 2.6875,2.6875z" fill="url(#color-3_52947_gr3)"></path><path d="M145.125,51.0625c0,1.4835 -1.204,2.6875 -2.6875,2.6875v0c-1.4835,0 -2.6875,-1.204 -2.6875,-2.6875v-26.875c0,-1.4835 1.204,-2.6875 2.6875,-2.6875v0c1.4835,0 2.6875,1.204 2.6875,2.6875z" fill="url(#color-4_52947_gr4)"></path></g></g></svg>