<svg xmlns="http://www.w3.org/2000/svg" x="0px" y="0px"
width="64" height="64"
viewBox="0 0 172 172"
style=" fill:#000000;"><defs><linearGradient x1="30.11613" y1="172.79013" x2="174.57194" y2="28.33431" gradientUnits="userSpaceOnUse" id="color-1_ZDbd0Ep4iFgf_gr1"><stop offset="0" stop-color="#e090f0"></stop><stop offset="1" stop-color="#05bdf5"></stop></linearGradient></defs><g fill="none" fill-rule="nonzero" stroke="none" stroke-width="1" stroke-linecap="butt" stroke-linejoin="miter" stroke-miterlimit="10" stroke-dasharray="" stroke-dashoffset="0" font-family="none" font-weight="none" font-size="none" text-anchor="none" style="mix-blend-mode: normal"><path d="M0,172v-172h172v172z" fill="none"></path><g fill="url(#color-1_ZDbd0Ep4iFgf_gr1)"><path d="M53.2125,117.04869c0.31891,0.63788 0.37122,1.37636 0.1454,2.05282c-0.22582,0.67646 -0.71125,1.23543 -1.3494,1.55381c-4.1421,2.06054 -9.01053,2.06054 -13.15262,0c-1.32842,-0.66347 -1.86747,-2.27821 -1.204,-3.60662c0.66347,-1.32842 2.27821,-1.86747 3.60662,-1.204c2.62853,1.3089 5.71885,1.3089 8.34738,0c0.63788,-0.31891 1.37636,-0.37122 2.05282,-0.1454c0.67646,0.22582 1.23543,0.71125 1.55381,1.3494zM166.625,21.5v142.4375c0,1.48427 -1.20323,2.6875 -2.6875,2.6875h-107.85206c-4.15827,-0.00946 -8.07211,-1.96588 -10.57531,-5.28631l-0.60469,-0.80625c-0.5256,-0.64813 -1.31554,-1.02456 -2.15,-1.02456c-0.83446,0 -1.6244,0.37644 -2.15,1.02456l-0.602,0.80625c-2.54345,3.38913 -6.55738,5.35363 -10.79417,5.28289c-4.23679,-0.07075 -8.18289,-2.16816 -10.61177,-5.64032l-1.17444,-1.67163c-9.72566,-13.85311 -13.79572,-30.89659 -11.37887,-47.64937c1.25688,-8.5366 8.56339,-14.8734 17.19194,-14.91025c4.60921,-0.01305 9.03196,1.81896 12.28188,5.08744l0.77131,0.77131c0.12094,0.11825 0.26875,0.20156 0.38969,0.31444c-0.73053,-2.39692 -1.13814,-4.88056 -1.21206,-7.38525l-10.6425,-2.91594c-5.66903,-1.56599 -10.45405,-5.37654 -13.24937,-10.55113l-5.88025,-10.922c-0.48282,-0.89772 -0.4162,-1.99133 0.172,-2.82381c0.58821,-0.83249 1.59675,-1.26055 2.60419,-1.10531l10.79031,1.66356c7.51641,1.17872 13.85767,6.22641 16.69206,13.287l1.118,2.80575l1.44319,-5.32662c0.42082,-1.39032 1.87025,-2.19464 3.27267,-1.81606c1.40242,0.37858 2.2502,1.80302 1.91421,3.21624l-2.06938,7.63787c-1.49094,5.50545 -0.87874,11.36878 1.71731,16.4475c0.79465,-0.04751 1.58017,-0.19469 2.33813,-0.43806v-72.44694c0,-1.48427 1.20323,-2.6875 2.6875,-2.6875h5.375v-8.0625c0,-1.48427 1.20323,-2.6875 2.6875,-2.6875h40.76131v-5.36156c0.01181,-4.44789 3.61461,-8.05069 8.0625,-8.0625h2.2145c4.45734,-0.0015 8.07483,3.60518 8.08669,8.0625v5.36156h48.375c1.48427,0 2.6875,1.20323 2.6875,2.6875zM102.57381,18.8125h7.61369v-5.36156c-0.00886,-1.48582 -1.21509,-2.68605 -2.70094,-2.6875h-2.2145c-1.48427,0 -2.6875,1.20323 -2.6875,2.6875zM91.375,24.1875v8.0625c0,1.48427 1.20323,2.6875 2.6875,2.6875h26.875c1.48427,0 2.6875,-1.20323 2.6875,-2.6875v-8.0625zM59.125,29.5625h26.875v-5.375h-26.875zM33.00519,89.2895l-2.0425,-5.13044c-2.12954,-5.29458 -6.88613,-9.07943 -12.52375,-9.96525l-5.45294,-0.84119l3.32175,6.18125c2.0971,3.88232 5.68915,6.73945 9.94375,7.90931zM56.08544,161.25c2.55896,-0.00253 4.95642,-1.2509 6.42581,-3.34594l1.17175,-1.677c8.94287,-12.73508 12.68525,-28.40442 10.46244,-43.80625c-0.86868,-5.89398 -5.91309,-10.26916 -11.87069,-10.29581c-3.18232,-0.00997 -6.23606,1.25508 -8.47906,3.51256l-0.774,0.77131c-0.88603,0.86153 -1.87968,1.60495 -2.95625,2.21181c-0.27163,0.22765 -0.58726,0.3969 -0.92719,0.49719c-5.55279,2.81337 -12.28694,1.71852 -16.6625,-2.709l-0.77131,-0.77131c-2.24106,-2.25381 -5.28995,-3.51846 -8.46831,-3.51256c-5.95759,0.02666 -11.00201,4.40183 -11.87069,10.29581c-2.22171,15.40178 1.52057,31.07071 10.46244,43.80625l1.17444,1.67163c1.44109,2.0606 3.78288,3.30519 6.29706,3.34668c2.51417,0.0415 4.89577,-1.12514 6.40407,-3.13706l0.60469,-0.80625c1.52264,-2.03018 3.91227,-3.225 6.45,-3.225c2.53773,0 4.92736,1.19482 6.45,3.225l0.602,0.80625c1.48533,1.971 3.80732,3.13349 6.27531,3.14169zM79.61987,129.07794c-0.3019,2.62317 -0.7614,5.22579 -1.376,7.79375c1.38049,0.35351 2.84604,-0.01794 3.8915,-0.98631c1.5676,-1.58093 1.5676,-4.13001 0,-5.71094c-0.69129,-0.63804 -1.57753,-1.02435 -2.5155,-1.0965zM82.13538,106.32556c1.5676,-1.58093 1.5676,-4.13001 0,-5.71094c-1.60985,-1.49569 -4.10108,-1.49569 -5.71094,0c-0.58042,0.58646 -0.9669,1.33691 -1.10725,2.15c1.17583,1.35415 2.13415,2.88276 2.84069,4.53113c1.4044,0.3862 2.90865,0.01928 3.9775,-0.97019zM150.5,161.25v-126.3125h-21.9945c-1.13481,3.20982 -4.16351,5.36089 -7.568,5.375h-26.875c-3.40449,-0.01411 -6.43319,-2.16518 -7.568,-5.375h-35.432v65.92975c5.59252,-4.76874 13.59512,-5.46279 19.92513,-1.72806c0.42165,-0.8574 0.97479,-1.64358 1.63938,-2.33006c3.75039,-3.49365 9.56349,-3.49365 13.31387,0c2.66374,2.6456 3.49328,6.62471 2.10856,10.11431c-1.38472,3.48959 -4.71689,5.81728 -8.46987,5.91663c0.45939,3.60063 0.62388,7.23277 0.49181,10.86019c2.2037,0.19578 4.27447,1.13825 5.8695,2.67137c3.07201,3.00901 3.70113,7.72298 1.52576,11.43231c-2.17538,3.70933 -6.59661,5.46145 -10.72238,4.24925c-2.03231,6.14026 -4.94842,11.95165 -8.65644,17.25106v0l-1.16906,1.677c-0.0645,0.09406 -0.13975,0.172 -0.20694,0.26875zM161.25,24.1875h-32.25v5.375h24.1875c1.48427,0 2.6875,1.20323 2.6875,2.6875v129h5.375zM88.6875,73.90625c0,5.19493 -4.21132,9.40625 -9.40625,9.40625c-5.19493,0 -9.40625,-4.21132 -9.40625,-9.40625c0,-5.19493 4.21132,-9.40625 9.40625,-9.40625c5.19493,0 9.40625,4.21132 9.40625,9.40625zM83.3125,73.90625c0,-2.2264 -1.80485,-4.03125 -4.03125,-4.03125c-2.2264,0 -4.03125,1.80485 -4.03125,4.03125c0,2.2264 1.80485,4.03125 4.03125,4.03125c2.2264,0 4.03125,-1.80485 4.03125,-4.03125zM123.625,49.71875h-29.5625v5.375h29.5625zM134.375,69.875h-40.3125v5.375h40.3125zM139.75,75.25h5.375v-5.375h-5.375zM134.375,99.4375h-40.3125v5.375h40.3125zM139.75,104.8125h5.375v-5.375h-5.375zM134.375,129h-40.3125v5.375h40.3125zM139.75,134.375h5.375v-5.375h-5.375zM96.75,155.875h5.375v-5.375h-5.375zM107.5,155.875h5.375v-5.375h-5.375zM118.25,155.875h5.375v-5.375h-5.375zM142.4375,40.3125h-8.0625v5.375h5.375v5.375h5.375v-8.0625c0,-1.48427 -1.20323,-2.6875 -2.6875,-2.6875zM80.625,40.3125h-5.375v5.375h5.375zM69.875,40.3125h-5.375v5.375h5.375zM139.75,150.5h-5.375v5.375h8.0625c1.48427,0 2.6875,-1.20323 2.6875,-2.6875v-8.0625h-5.375z"></path></g></g></svg>