<svg xmlns="http://www.w3.org/2000/svg" x="0px" y="0px"
width="200" height="200"
viewBox="0 0 172 172"
style=" fill:#000000;"><g fill="none" fill-rule="nonzero" stroke="none" stroke-width="1" stroke-linecap="butt" stroke-linejoin="miter" stroke-miterlimit="10" stroke-dasharray="" stroke-dashoffset="0" font-family="none" font-weight="none" font-size="none" text-anchor="none" style="mix-blend-mode: normal"><path d="M0,172v-172h172v172z" fill="none"></path><g><path d="M111.8,90.3c-2.6101,0 -7.0262,-2.5671 -14.0051,-6.7553c-4.0807,-2.451 -10.2426,-6.1447 -11.7949,-6.1447c-1.5523,0 -7.7142,3.6937 -11.7949,6.1447c-6.9789,4.1882 -11.395,6.7553 -14.0051,6.7553c-2.7262,0 -6.3554,-2.6144 -12.04,-6.88c-3.0014,-2.2532 -8.0281,-6.02 -9.46,-6.02h-12.9v-4.3h12.9c2.7262,0 6.3554,2.6144 12.04,6.88c3.0014,2.2532 8.0281,6.02 9.46,6.02c1.5523,0 7.7142,-3.6937 11.7949,-6.1447c6.9789,-4.1882 11.395,-6.7553 14.0051,-6.7553c2.6101,0 7.0262,2.5671 14.0051,6.7553c4.0807,2.451 10.2426,6.1447 11.7949,6.1447c1.4319,0 6.4586,-3.7668 9.46,-6.02c5.6846,-4.2613 9.3138,-6.88 12.04,-6.88h12.9v4.3h-12.9c-1.4319,0 -6.4586,3.7668 -9.46,6.02c-5.6846,4.2656 -9.3138,6.88 -12.04,6.88zM0,34.4h172v4.3h-172z" fill="#95a5a6"></path><path d="M47.3,34.4h21.5v4.3h-21.5zM103.2,34.4h21.5v4.3h-21.5zM64.5,116.1l4.3,-4.3v38.7l-4.3,-4.3zM103.2,111.8l4.3,4.3v30.1l-4.3,4.3z" fill="#3498db"></path><path d="M0,129h47.3v4.3h-47.3zM124.7,129h47.3v4.3h-47.3z" fill="#95a5a6"></path><path d="M17.2,120.4h8.6v21.5h-8.6zM146.2,120.4h8.6v21.5h-8.6zM17.2,25.8h8.6v21.5h-8.6zM146.2,25.8h8.6v21.5h-8.6zM108.2697,116.1c9.0601,0 16.4303,6.751 16.4303,15.05c0,8.299 -7.3702,15.05 -16.4303,15.05h-44.5394c-9.0601,0 -16.4303,-6.751 -16.4303,-15.05c0,-8.299 7.3702,-15.05 16.4303,-15.05h44.5394M108.2697,111.8h-44.5394c-11.4294,0 -20.7303,8.6817 -20.7303,19.35c0,10.6683 9.3009,19.35 20.7303,19.35h44.5351c11.4337,0 20.7346,-8.6817 20.7346,-19.35c0,-10.6683 -9.3009,-19.35 -20.7303,-19.35z" fill="#3498db"></path><path d="M0,73.1h21.5v4.3h-21.5zM150.5,73.1h21.5v4.3h-21.5z" fill="#95a5a6"></path><path d="M17.2,64.5h8.6v21.5h-8.6zM146.2,64.5h8.6v21.5h-8.6z" fill="#3498db"></path><g fill="#3498db"><path d="M50.74,79.98c-5.6846,-4.2656 -9.3138,-6.88 -12.04,-6.88v4.3c1.4319,0 6.4586,3.7668 9.46,6.02c5.6846,4.2613 9.3138,6.88 12.04,6.88v-4.3c-1.4319,0 -6.4586,-3.7668 -9.46,-6.02zM121.26,79.98c-3.0014,2.2532 -8.0281,6.02 -9.46,6.02v4.3c2.7262,0 6.3554,-2.6144 12.04,-6.88c3.0014,-2.2532 8.0281,-6.02 9.46,-6.02v-4.3c-2.7262,0 -6.3554,2.6144 -12.04,6.88z"></path></g></g></g></svg>