<svg xmlns="http://www.w3.org/2000/svg" x="0px" y="0px"
width="64" height="64"
viewBox="0 0 172 172"
style=" fill:#000000;"><defs><linearGradient x1="28.98973" y1="143.01027" x2="143.01027" y2="28.98973" gradientUnits="userSpaceOnUse" id="color-1_hXQ8b57fMBtB_gr1"><stop offset="0" stop-color="#e090f0"></stop><stop offset="1" stop-color="#05bdf5"></stop></linearGradient></defs><g transform=""><g fill="none" fill-rule="nonzero" stroke="none" stroke-width="1" stroke-linecap="butt" stroke-linejoin="miter" stroke-miterlimit="10" stroke-dasharray="" stroke-dashoffset="0" font-family="none" font-weight="none" font-size="none" text-anchor="none" style="mix-blend-mode: normal"><path d="M0,172v-172h172v172z" fill="none"></path><path d="" fill="none"></path><path d="" fill="none"></path><g fill="url(#color-1_hXQ8b57fMBtB_gr1)"><path d="M86,166.625c32.60979,-0.00003 62.00858,-19.64374 74.48775,-49.77127c12.47918,-30.12753 5.58117,-64.80579 -17.47748,-87.86434c-20.34036,-20.50451 -50.09488,-28.56261 -78.00261,-21.1246c-27.90773,7.43801 -49.70503,29.23575 -57.14246,57.14364c-7.43743,27.90789 0.62128,57.66224 21.12621,78.00218c15.08649,15.1692 35.61459,23.67246 57.00859,23.61439zM32.79019,32.79019c29.38697,-29.38697 77.03266,-29.38697 106.41962,0c29.38697,29.38697 29.38697,77.03266 0,106.41963c-29.38697,29.38697 -77.03266,29.38697 -106.41962,0c-29.38697,-29.38697 -29.38697,-77.03266 0,-106.41962zM50.99128,140.18168c2.13417,1.38163 4.34804,2.63608 6.63006,3.75679l-2.36769,4.82541c-2.47267,-1.21433 -4.87152,-2.57354 -7.18402,-4.07055zM150.5,86h5.375c0,38.52901 -31.34599,69.875 -69.875,69.875c-7.60255,0.00806 -15.15532,-1.22643 -22.35966,-3.65466l1.71933,-5.09281c6.65039,2.24129 13.62243,3.38047 20.64034,3.37248c35.56537,0 64.5,-28.93463 64.5,-64.5zM34.9375,134.375h16.125c1.48427,0 2.6875,-1.20323 2.6875,-2.6875h9.95349c5.54992,3.50929 11.98111,5.37303 18.54745,5.375h3.1212c1.52653,1.71037 3.71035,2.68807 6.00287,2.6875h10.75c2.86589,0.00228 5.51725,-1.51808 6.96285,-3.99267c1.44559,-2.47459 1.46777,-5.53085 0.05825,-8.02616c1.99633,-1.26975 3.33289,-3.35354 3.65443,-5.69752c0.32154,-2.34398 -0.4045,-4.71071 -1.98516,-6.47115c2.74618,-3.05718 2.74618,-7.69282 0,-10.75c2.12388,-2.36744 2.65631,-5.76277 1.35905,-8.66669c-1.29725,-2.90392 -4.18141,-4.77297 -7.36192,-4.77081h-8.0625v-13.05453c0.001,-4.43148 -3.42387,-8.10981 -7.84415,-8.42468c-4.42028,-0.31487 -8.33195,2.84086 -8.95911,7.22773l-0.58151,4.06484c-1.27652,8.92858 -8.92305,15.56049 -17.94242,15.56163h-7.67281v-2.6875c0,-1.48427 -1.20323,-2.6875 -2.6875,-2.6875h-16.125c-1.48427,0 -2.6875,1.20323 -2.6875,2.6875v37.625c0,1.48427 1.20323,2.6875 2.6875,2.6875zM107.5,110.1875c-0.00167,1.48357 -1.20393,2.68583 -2.6875,2.6875h-10.75c-1.48427,0 -2.6875,-1.20323 -2.6875,-2.6875c0,-1.48427 1.20323,-2.6875 2.6875,-2.6875h10.75c1.48357,0.00167 2.68583,1.20393 2.6875,2.6875zM107.5,120.9375c-0.00167,1.48357 -1.20393,2.68583 -2.6875,2.6875h-10.75c-1.48427,0 -2.6875,-1.20323 -2.6875,-2.6875c0,-1.48427 1.20323,-2.6875 2.6875,-2.6875h10.75c1.48357,0.00167 2.68583,1.20393 2.6875,2.6875zM102.125,134.375h-10.75c-1.48427,0 -2.6875,-1.20323 -2.6875,-2.6875c0,-1.48427 1.20323,-2.6875 2.6875,-2.6875h10.75c1.48427,0 2.6875,1.20323 2.6875,2.6875c0,1.48427 -1.20323,2.6875 -2.6875,2.6875zM107.5,99.4375c-0.00167,1.48357 -1.20393,2.68583 -2.6875,2.6875h-10.75c-1.48427,0 -2.6875,-1.20323 -2.6875,-2.6875c0,-1.48427 1.20323,-2.6875 2.6875,-2.6875h10.75c1.48357,0.00167 2.68583,1.20393 2.6875,2.6875zM61.42281,102.125c11.6938,-0.00155 21.60779,-8.59972 23.26334,-20.17573l0.58184,-4.0672c0.22919,-1.59398 1.65139,-2.73975 3.25764,-2.62445c1.60624,0.11531 2.85021,1.45247 2.84937,3.06285v13.51678c-2.53616,0.89475 -4.45845,2.99622 -5.12423,5.60187c-0.66578,2.60565 0.01279,5.37168 1.80887,7.37338c-2.74618,3.05718 -2.74618,7.69282 0,10.75c-2.30846,2.56889 -2.71821,6.32516 -1.01789,9.33134c-2.32132,1.47945 -3.72741,4.04098 -3.72924,6.79366h-1.06156c-5.78666,-0.00164 -11.44363,-1.7144 -16.25938,-4.92283c-0.44156,-0.29486 -0.96061,-0.45221 -1.49156,-0.45217h-10.75v-24.1875zM37.625,96.75h10.75v32.25h-10.75zM69.33515,41.54337l6.46545,4.69741l-2.46981,7.60126c-0.53957,1.66093 0.05168,3.48041 1.46454,4.50689c1.41286,1.02648 3.32599,1.0265 4.73888,0.00005l6.46579,-4.69741l6.46545,4.69708c1.41288,1.02674 3.32621,1.02687 4.73923,0.00033c1.41302,-1.02654 2.00428,-2.84623 1.46452,-4.50727l-2.46981,-7.60092l6.46512,-4.69708c1.41302,-1.02638 2.00444,-2.84589 1.46494,-4.50691c-0.5395,-1.66103 -2.08719,-2.78576 -3.83364,-2.78595h-7.99195l-2.46981,-7.60092v0c-0.53958,-1.66114 -2.08748,-2.78586 -3.83405,-2.78586c-1.74657,0 -3.29448,1.12472 -3.83405,2.78586l-2.46981,7.60092h-7.99195c-1.74632,0.00025 -3.2939,1.12487 -3.83344,2.78574c-0.53955,1.66088 0.05164,3.48029 1.46441,4.50679zM80.6727,39.62584c1.74743,0.0029 3.29682,-1.12279 3.83405,-2.78559l1.49324,-4.5963l1.49358,4.59697c0.53725,1.66255 2.08652,2.78798 3.83372,2.78492h4.83246l-3.91132,2.84102c-1.41498,1.02481 -2.00657,2.84587 -1.46402,4.5066l1.49324,4.59596l-3.90897,-2.84002c-1.41205,-1.02996 -3.32769,-1.02996 -4.73974,0l-3.9093,2.84035l1.49324,-4.5963c0.54248,-1.66081 -0.04925,-3.48188 -1.46435,-4.5066l-3.90964,-2.84069zM109.16423,63.36655l6.46545,4.69741l-2.46948,7.60126c-0.54188,1.66125 0.04869,3.48244 1.46235,4.50956c1.41366,1.02711 3.32821,1.02606 4.74073,-0.00262l6.46579,-4.69775l6.46579,4.69741c1.41288,1.02645 3.32601,1.02643 4.73888,-0.00005c1.41286,-1.02648 2.00411,-2.84596 1.46454,-4.50689l-2.46948,-7.60092l6.46579,-4.69775c1.41287,-1.02657 2.00403,-2.84616 1.46431,-4.50711c-0.53972,-1.66095 -2.08757,-2.78547 -3.83401,-2.78542h-7.99195l-2.46948,-7.60059c-0.53958,-1.66114 -2.08748,-2.78586 -3.83405,-2.78586c-1.74657,0 -3.29448,1.12472 -3.83405,2.78586l-2.46914,7.60059h-7.99229c-1.74663,-0.00024 -3.29473,1.12434 -3.83449,2.78547c-0.53976,1.66114 0.05162,3.48091 1.46479,4.50739zM120.50213,61.44868c1.74734,0.00295 3.2967,-1.12259 3.83405,-2.78526l1.49324,-4.59596l1.49358,4.59563c0.53656,1.66314 2.08617,2.7891 3.83372,2.78559h4.83313l-3.90964,2.84069c-1.41588,1.02446 -2.00787,2.8462 -1.46469,4.50727l1.49324,4.5963l-3.90964,-2.84035c-1.41181,-1.02995 -3.32726,-1.02995 -4.73907,0l-3.90998,2.84069l1.49291,-4.59562c0.54378,-1.66096 -0.04784,-3.48296 -1.46368,-4.50761l-3.90998,-2.84102zM33.91423,66.05405l6.46545,4.69741l-2.46948,7.60126c-0.54188,1.66125 0.04869,3.48244 1.46235,4.50956c1.41366,1.02711 3.32821,1.02606 4.74073,-0.00262l6.46579,-4.69775l6.46579,4.69741c1.41288,1.02645 3.32601,1.02643 4.73888,-0.00005c1.41286,-1.02648 2.00411,-2.84596 1.46454,-4.50689l-2.46948,-7.60092l6.46579,-4.69775c1.41287,-1.02657 2.00403,-2.84616 1.46431,-4.50711c-0.53972,-1.66095 -2.08757,-2.78547 -3.83401,-2.78542h-7.99195l-2.46948,-7.60059c-0.53958,-1.66114 -2.08748,-2.78586 -3.83405,-2.78586c-1.74657,0 -3.29448,1.12472 -3.83405,2.78586l-2.46914,7.60059h-7.99229c-1.74663,-0.00024 -3.29473,1.12434 -3.83449,2.78547c-0.53976,1.66114 0.05162,3.48091 1.46479,4.50739zM45.25213,64.13618c1.74734,0.00295 3.2967,-1.12259 3.83405,-2.78526l1.49324,-4.59596l1.49358,4.59563c0.53656,1.66314 2.08617,2.7891 3.83372,2.78559h4.83313l-3.90964,2.84069c-1.41588,1.02446 -2.00787,2.8462 -1.46469,4.50727l1.49324,4.5963l-3.90964,-2.84035c-1.41181,-1.02995 -3.32726,-1.02995 -4.73907,0l-3.90998,2.84069l1.49291,-4.59562c0.54378,-1.66096 -0.04784,-3.48296 -1.46368,-4.50761l-3.90998,-2.84102z"></path></g></g></g></svg>