<svg xmlns="http://www.w3.org/2000/svg" x="0px" y="0px"
width="64" height="64"
viewBox="0 0 172 172"
style=" fill:#000000;"><defs><linearGradient x1="107.65588" y1="23.06681" x2="107.65588" y2="46.58513" gradientUnits="userSpaceOnUse" id="color-1_43652_gr1"><stop offset="0" stop-color="#fcf3fd"></stop><stop offset="1" stop-color="#6edafc"></stop></linearGradient><linearGradient x1="91.375" y1="17.46875" x2="91.375" y2="163.572" gradientUnits="userSpaceOnUse" id="color-2_43652_gr2"><stop offset="0" stop-color="#e090f0"></stop><stop offset="1" stop-color="#05bdf5"></stop></linearGradient><linearGradient x1="107.65588" y1="17.46875" x2="107.65588" y2="163.572" gradientUnits="userSpaceOnUse" id="color-3_43652_gr3"><stop offset="0" stop-color="#e090f0"></stop><stop offset="1" stop-color="#05bdf5"></stop></linearGradient></defs><g fill="none" fill-rule="nonzero" stroke="none" stroke-width="1" stroke-linecap="butt" stroke-linejoin="miter" stroke-miterlimit="10" stroke-dasharray="" stroke-dashoffset="0" font-family="none" font-weight="none" font-size="none" text-anchor="none" style="mix-blend-mode: normal"><path d="M0,172v-172h172v172z" fill="none"></path><g><path d="M107.65588,24.1875c-5.94894,0 -10.7715,4.81294 -10.7715,10.75c0,5.93706 4.82256,10.75 10.7715,10.75c5.94894,0 10.7715,-4.81294 10.7715,-10.75c0,-5.93706 -4.82256,-10.75 -10.7715,-10.75z" fill="url(#color-1_43652_gr1)"></path><path d="M150.73381,60.7375v0c-2.69287,-4.73806 -10.05931,-5.70556 -14.8135,-2.15l-10.18562,7.73194c-2.13387,1.591 -5.0955,1.37869 -6.98481,-0.50256l-7.51156,-7.53037c-2.65256,-2.64719 -5.71631,-5.00412 -10.24744,-4.49081c-0.39506,0.04838 -0.76056,0.18275 -1.14487,0.27412l-0.00806,-0.04838l-25.35656,5.84262c-9.9115,2.28438 -17.60044,9.82012 -20.07294,19.67519l-2.98044,11.91369c-0.69875,2.78694 -0.26875,5.676 1.21206,8.13775c1.48081,2.46444 3.83237,4.20056 6.61931,4.89663c0.85194,0.215 1.73344,0.3225 2.623,0.3225c4.95038,0 9.245,-3.34863 10.44094,-8.14313l2.98581,-11.91369c0.4945,-1.97263 2.03444,-3.483 4.0205,-3.93988l8.88756,-2.04788c-0.98094,4.86169 -2.11238,10.68281 -3.43731,17.673c-0.29025,1.53725 -0.51331,2.71975 -0.645,3.397l-13.64444,15.36175c-1.25506,1.40556 -3.04494,2.03713 -4.89931,1.73344l-23.50219,-3.91031c-5.8265,-0.96213 -11.40575,2.99925 -12.38131,8.8365c-0.97825,5.84531 2.99387,11.39231 8.85531,12.37056l23.50488,3.91031c1.48081,0.24725 2.9885,0.37356 4.48275,0.37356c7.64594,0 14.964,-3.29219 20.07294,-9.02731c4.57681,-5.1385 7.81525,-8.77469 10.1265,-11.37081l14.47488,7.22131c1.08844,0.54287 1.97263,1.45125 2.43487,2.44831l11.13431,27.22437c1.763,3.79206 5.60344,6.24306 9.79056,6.24306c1.56144,0 3.07987,-0.33325 4.50962,-0.989c5.39113,-2.48594 7.75075,-8.88487 5.31319,-14.15775l-11.13431,-27.22169c-2.55581,-5.52281 -6.96063,-10.062 -12.4055,-12.77906l-14.49906,-7.23744l2.73319,-13.63369c4.085,2.35425 8.77469,3.62275 13.5665,3.62275c5.88831,0 11.46488,-1.84631 16.13038,-5.33738l10.05662,-7.72925c4.74612,-3.55556 5.91787,-10.30925 1.87856,-15.05zM78.12294,75.57788c-3.96675,0.91375 -7.04662,3.93181 -8.03294,7.87706l-2.98581,11.91369c-0.70144,2.82725 -3.71681,4.59831 -6.52794,3.91031c-1.3975,-0.34938 -2.57194,-1.21744 -3.311,-2.44831c-0.74175,-1.23087 -0.95406,-2.67675 -0.60737,-4.07156l2.98312,-11.91369c1.978,-7.88513 8.13238,-13.91587 16.0605,-15.74069l16.50663,-3.80281c-0.70144,2.29244 -1.60712,6.07375 -2.78963,11.67719zM118.45694,110.91313c4.35644,2.17419 7.87975,5.805 9.87656,10.11306l11.137,27.22169c1.24431,2.69288 0.06181,5.891 -2.62838,7.13263c-2.6445,1.20669 -5.96356,-0.0645 -7.10306,-2.51819l-11.13431,-27.22169c-1.02394,-2.21181 -2.78694,-4.02856 -4.9665,-5.11431l-13.1795,-6.57631c0.99706,-1.12338 1.51037,-1.70656 1.77375,-2.01025l0.01344,0.01075c0.43806,-0.48913 0.84656,-1.05081 1.21744,-1.67431c0.09137,-0.15588 0.16931,-0.31444 0.28487,-0.55631c0.19888,-0.39238 0.39238,-0.79012 0.55631,-1.23625c0.08063,-0.22844 0.14781,-0.45956 0.26875,-0.89225c0.07256,-0.22844 0.14244,-0.45688 0.18275,-0.66919l0.51869,-2.58806zM145.89094,71.49019l-10.32537,7.72925c-3.72488,2.78694 -8.18613,4.26238 -12.9,4.26238c-5.0095,0 -9.87387,-1.72269 -13.69819,-4.85094l-3.46956,-2.838l-6.04687,30.12419l-0.20694,0.72025c-0.08063,0.21769 -0.18275,0.42194 -0.28488,0.61544l-0.13975,0.29563c-0.17469,0.28756 -0.3655,0.56437 -0.58856,0.81431l-0.17469,0.19619c-0.36012,0.40581 -1.32494,1.48888 -2.58269,2.9025l-0.08331,-0.04031l-0.15319,0.30906c-4.52844,5.08475 -12.63125,14.18462 -12.63125,14.18462c-4.89125,5.48788 -12.37594,8.14044 -19.64831,6.923l-23.50756,-3.91031c-2.92937,-0.48913 -4.91812,-3.26262 -4.429,-6.18662c0.43806,-2.623 2.7305,-4.48813 5.31319,-4.48813c0.29025,0 0.58319,0.02419 0.87881,0.06988l23.4995,3.91031c3.66844,0.61544 7.33419,-0.688 9.80669,-3.46687l14.13088,-15.90731c0.50794,-0.57781 0.50794,-0.57781 1.42437,-5.418c4.15756,-21.94881 6.751,-34.013 7.68087,-35.81362c0.82506,-1.35181 2.31663,-2.30588 3.8915,-2.494c2.14731,-0.25531 3.75713,0.89494 5.81844,2.95356l7.54381,7.53037c3.77325,3.75981 9.82281,4.18713 14.09056,0.99975l10.32,-7.72925c2.37844,-1.77912 5.76469,-1.29537 7.54381,1.06963c1.78719,2.37575 1.30344,5.75125 -1.07231,7.53306z" fill="url(#color-2_43652_gr2)"></path><path d="M107.65588,48.375c7.42288,0 13.46438,-6.02806 13.46438,-13.4375c0,-7.40944 -6.03881,-13.4375 -13.46438,-13.4375c-7.42556,0 -13.46437,6.02806 -13.46437,13.4375c0,7.40944 6.0415,13.4375 13.46437,13.4375zM107.65588,26.875c4.45319,0 8.07863,3.61737 8.07863,8.0625c0,4.44512 -3.62275,8.0625 -8.07863,8.0625c-4.45319,0 -8.07863,-3.61738 -8.07863,-8.0625c0,-4.44513 3.62275,-8.0625 8.07863,-8.0625z" fill="url(#color-3_43652_gr3)"></path></g></g></svg>