<svg xmlns="http://www.w3.org/2000/svg" x="0px" y="0px"
width="64" height="64"
viewBox="0 0 172 172"
style=" fill:#000000;"><defs><linearGradient x1="114.21875" y1="23.54519" x2="114.21875" y2="68.31625" gradientUnits="userSpaceOnUse" id="color-1_53011_gr1"><stop offset="0" stop-color="#fcf3fd"></stop><stop offset="1" stop-color="#6edafc"></stop></linearGradient><linearGradient x1="94.0625" y1="47.95575" x2="94.0625" y2="70.35069" gradientUnits="userSpaceOnUse" id="color-2_53011_gr2"><stop offset="0" stop-color="#fcf3fd"></stop><stop offset="1" stop-color="#6edafc"></stop></linearGradient><linearGradient x1="56.4375" y1="139.63713" x2="56.4375" y2="145.35881" gradientUnits="userSpaceOnUse" id="color-3_53011_gr3"><stop offset="0" stop-color="#fcf3fd"></stop><stop offset="1" stop-color="#6edafc"></stop></linearGradient><linearGradient x1="45.6875" y1="123.73788" x2="45.6875" y2="129.4515" gradientUnits="userSpaceOnUse" id="color-4_53011_gr4"><stop offset="0" stop-color="#fcf3fd"></stop><stop offset="1" stop-color="#6edafc"></stop></linearGradient><linearGradient x1="34.9375" y1="107.38713" x2="34.9375" y2="113.45281" gradientUnits="userSpaceOnUse" id="color-5_53011_gr5"><stop offset="0" stop-color="#fcf3fd"></stop><stop offset="1" stop-color="#6edafc"></stop></linearGradient><linearGradient x1="26.875" y1="91.26213" x2="26.875" y2="97.01338" gradientUnits="userSpaceOnUse" id="color-6_53011_gr6"><stop offset="0" stop-color="#fcf3fd"></stop><stop offset="1" stop-color="#6edafc"></stop></linearGradient><linearGradient x1="24.1875" y1="75.13713" x2="24.1875" y2="81.18669" gradientUnits="userSpaceOnUse" id="color-7_53011_gr7"><stop offset="0" stop-color="#fcf3fd"></stop><stop offset="1" stop-color="#6edafc"></stop></linearGradient><linearGradient x1="98.07225" y1="20.52175" x2="98.07225" y2="151.62338" gradientUnits="userSpaceOnUse" id="color-8_53011_gr8"><stop offset="0" stop-color="#e090f0"></stop><stop offset="1" stop-color="#05bdf5"></stop></linearGradient></defs><g fill="none" fill-rule="nonzero" stroke="none" stroke-width="1" stroke-linecap="butt" stroke-linejoin="miter" stroke-miterlimit="10" stroke-dasharray="" stroke-dashoffset="0" font-family="none" font-weight="none" font-size="none" text-anchor="none" style="mix-blend-mode: normal"><path d="M0,172v-172h172v172z" fill="none"></path><g><path d="M118.96756,64.54838l-18.78563,-32.06188c-1.50769,-2.62837 -0.65306,-6.01462 1.91081,-7.56262v0c2.56388,-1.548 5.86681,-0.66919 7.3745,1.95919l18.78563,32.06188c1.50769,2.62837 0.65306,6.01463 -1.91081,7.56263v0c-2.56119,1.548 -5.86413,0.66919 -7.3745,-1.95919z" fill="url(#color-1_53011_gr1)"></path><path d="M94.0625,51.09206c-4.4528,0 -8.0625,3.6097 -8.0625,8.0625c0,4.4528 3.6097,8.0625 8.0625,8.0625c4.4528,0 8.0625,-3.6097 8.0625,-8.0625c0,-4.4528 -3.6097,-8.0625 -8.0625,-8.0625z" fill="url(#color-2_53011_gr2)"></path><path d="M45.6875,139.75h21.5v5.375h-21.5z" fill="url(#color-3_53011_gr3)"></path><path d="M34.9375,123.625h21.5v5.375h-21.5z" fill="url(#color-4_53011_gr4)"></path><path d="M21.5,107.5h26.875v5.375h-26.875z" fill="url(#color-5_53011_gr5)"></path><path d="M16.125,91.375h21.5v5.375h-21.5z" fill="url(#color-6_53011_gr6)"></path><path d="M16.125,75.25h16.125v5.375h-16.125z" fill="url(#color-7_53011_gr7)"></path><path d="M150.5,134.89906v-8.557c0,-13.33806 -10.84944,-24.1875 -24.1875,-24.1875l-3.71681,-0.00538l-13.10425,-26.20581c-0.63694,-1.27925 -0.16931,-2.83531 1.07231,-3.54212l7.79644,-4.45588c0.93525,0.81969 2.02637,1.4405 3.25994,1.76031c0.66381,0.172 1.33569,0.258 2.00488,0.258c1.42975,0 2.84337,-0.39238 4.10381,-1.15294c3.80013,-2.29244 5.08206,-7.31806 2.84338,-11.223l-18.77219,-32.04038c-1.09919,-1.91619 -2.86756,-3.27338 -4.98262,-3.81894c-2.08013,-0.54287 -4.25431,-0.21769 -6.10869,0.89494c-2.55313,1.53994 -3.9345,4.31612 -3.91031,7.15413l-46.03687,29.07338c-0.09406,-0.02956 -0.17737,-0.07794 -0.27413,-0.10481c-2.08281,-0.58319 -4.25431,-0.30638 -6.12212,0.75519c-1.87588,1.06156 -3.22231,2.78694 -3.79744,4.86706c-0.57513,2.07206 -0.30638,4.24894 0.75519,6.12481l41.49231,73.21019c2.38112,4.20325 6.8585,6.79669 11.68794,6.79669h53.30925c4.44512,0 8.0625,-3.60125 8.0625,-8.04906c0,-3.49644 -2.25213,-6.43925 -5.375,-7.55187zM107.89775,67.73306c-3.12019,1.7845 -4.58756,5.3535 -3.85387,8.72094l-10.98112,4.39137l1.99412,4.99069l11.14238,-4.45588l2.96431,5.92594l-10.72312,4.28925l1.99412,4.99069l11.14238,-4.45588l2.96431,5.92594l-10.72313,4.28925l1.99412,4.99069l11.14238,-4.45588l0.83581,1.65819c0.91644,1.83556 2.76006,2.96163 4.81063,2.96163h3.71144c10.37106,0 18.8125,8.46831 18.8125,18.84206v8.03294h-47.48544c-0.96481,0 -1.86244,-0.50794 -2.33812,-1.34644l-33.41638,-58.96644l7.79106,-4.67087c3.5905,-2.15537 4.93694,-6.77519 3.06375,-10.51619l-2.86488,-5.73512l28.681,-18.11375l16.70281,28.50363zM67.93194,61.28038c0.6235,1.24969 0.17469,2.78694 -1.02125,3.50719l-7.6755,4.60638l-3.88075,-6.85044c-0.03225,-0.05644 -0.07794,-0.10481 -0.11288,-0.16125l10.06469,-6.35594zM103.48219,27.22706c0.41388,-0.24994 0.87344,-0.37894 1.34106,-0.37894c0.215,0 0.43269,0.02688 0.645,0.08062c0.70413,0.18275 1.29269,0.63962 1.68238,1.31419l18.77219,32.04037c0.78475,1.36794 0.35206,3.12556 -0.9675,3.92106c-0.60738,0.36281 -1.3115,0.473 -1.98606,0.29563c-0.70413,-0.18275 -1.29269,-0.63962 -1.66894,-1.29269l-18.78563,-32.06187c-0.78475,-1.36525 -0.35206,-3.12287 0.9675,-3.91837zM147.8125,145.125h-53.30925c-2.89444,0 -5.58194,-1.55338 -7.009,-4.07156l-41.495,-73.21825c-0.35475,-0.6235 -0.44344,-1.34913 -0.25263,-2.03981c0.19081,-0.69069 0.63963,-1.26312 1.26581,-1.61787c0.4085,-0.23381 0.86269,-0.35206 1.31956,-0.35206c0.24188,0 0.48375,0.03494 0.72294,0.09944c0.69337,0.19081 1.2685,0.63963 1.62325,1.26581l39.94969,70.48775c1.42975,2.52088 4.11725,4.07156 7.01169,4.07156h50.17294c1.4835,0 2.6875,1.204 2.6875,2.6875c0,1.4835 -1.204,2.6875 -2.6875,2.6875z" fill="url(#color-8_53011_gr8)"></path></g></g></svg>