<svg xmlns="http://www.w3.org/2000/svg" x="0px" y="0px"
width="200" height="200"
viewBox="0 0 172 172"
style=" fill:#000000;"><defs><linearGradient x1="16.15994" y1="170.46073" x2="155.84006" y2="30.78027" gradientUnits="userSpaceOnUse" id="color-1_QBqILPkGMC52_gr1"><stop offset="0" stop-color="#e090f0"></stop><stop offset="1" stop-color="#05bdf5"></stop></linearGradient></defs><g fill="none" fill-rule="nonzero" stroke="none" stroke-width="1" stroke-linecap="butt" stroke-linejoin="miter" stroke-miterlimit="10" stroke-dasharray="" stroke-dashoffset="0" font-family="none" font-weight="none" font-size="none" text-anchor="none" style="mix-blend-mode: normal"><path d="M0,172v-172h172v172z" fill="none"></path><g fill="url(#color-1_QBqILPkGMC52_gr1)"><path d="M158.5625,96.75c1.48427,0 2.6875,-1.20323 2.6875,-2.6875v-21.5c0,-1.48427 -1.20323,-2.6875 -2.6875,-2.6875h-2.6875v-25.53125c-0.00592,-5.19247 -4.21378,-9.40033 -9.40625,-9.40625h-12.09375v-22.84375c-0.00426,-3.7089 -3.00985,-6.71449 -6.71875,-6.71875h-83.3125c-3.7089,0.00426 -6.71449,3.00985 -6.71875,6.71875v22.84375h-12.09375c-5.19247,0.00592 -9.40033,4.21378 -9.40625,9.40625v25.53125h-2.6875c-1.48427,0 -2.6875,1.20323 -2.6875,2.6875v21.5c0,1.48427 1.20323,2.6875 2.6875,2.6875h2.6875v53.75h-1.34375c-2.2254,0.00241 -4.02884,1.80585 -4.03125,4.03125v9.40625c0,1.48427 1.20323,2.6875 2.6875,2.6875h145.125c1.48427,0 2.6875,-1.20323 2.6875,-2.6875v-9.40625c-0.00241,-2.2254 -1.80585,-4.02884 -4.03125,-4.03125h-1.34375v-53.75zM43,12.09375c0,-0.74213 0.60162,-1.34375 1.34375,-1.34375h83.3125c0.74213,0 1.34375,0.60162 1.34375,1.34375v45.6875c0,0.74213 -0.60162,1.34375 -1.34375,1.34375h-83.3125c-0.74213,0 -1.34375,-0.60162 -1.34375,-1.34375zM21.5,44.34375c0.00241,-2.2254 1.80585,-4.02884 4.03125,-4.03125h12.09375v17.46875c0.00426,3.7089 3.00985,6.71449 6.71875,6.71875h83.3125c3.7089,-0.00426 6.71449,-3.00985 6.71875,-6.71875v-17.46875h12.09375c2.2254,0.00241 4.02884,1.80585 4.03125,4.03125v25.53125h-129zM155.875,161.25h-139.75v-5.375h139.75zM72.5625,107.5h-43c-1.48427,0 -2.6875,1.20323 -2.6875,2.6875v40.3125h-5.375v-53.75h59.125v53.75h-5.375v-40.3125c0,-1.48427 -1.20323,-2.6875 -2.6875,-2.6875zM69.875,112.875v37.625h-16.125v-37.625zM48.375,112.875v37.625h-16.125v-37.625zM139.75,140.21225v-16.58725c0.00002,-1.09896 -0.66906,-2.08722 -1.68943,-2.49534l-13.4375,-5.375c-0.828,-0.33118 -1.76636,-0.23008 -2.5048,0.26989c-0.73844,0.49997 -1.18079,1.33367 -1.18077,2.22545v8.0625c0.00003,1.01788 0.57512,1.94839 1.48552,2.40363l3.5391,1.76972l-1.8527,9.26415h-24.67192c-2.61764,-0.00086 -5.07265,1.26955 -6.58379,3.40695c-1.51114,2.1374 -1.89016,4.87554 -1.01646,7.34305h-5.83725v-53.75h64.5v53.75h-5.83725c0.71387,-2.01566 0.59723,-4.23243 -0.32423,-6.16205c-0.92146,-1.92962 -2.57215,-3.41382 -4.58852,-4.1257zM130.20198,126.59637l-3.88948,-1.94474v-2.43219l8.0625,3.225v14.30556h-4.78442l2.04485,-10.22291c0.23762,-1.18836 -0.3495,-2.38875 -1.43345,-2.93072zM129.46225,150.5h-22.4245c0.61633,-1.73866 0.61633,-3.63634 0,-5.375h22.4245c-0.61633,1.73866 -0.61633,3.63634 0,5.375zM137.0625,145.125c1.48427,0 2.6875,1.20323 2.6875,2.6875c0,1.48427 -1.20323,2.6875 -2.6875,2.6875c-1.48427,0 -2.6875,-1.20323 -2.6875,-2.6875c0.00167,-1.48357 1.20393,-2.68583 2.6875,-2.6875zM102.125,147.8125c0,1.48427 -1.20323,2.6875 -2.6875,2.6875c-1.48427,0 -2.6875,-1.20323 -2.6875,-2.6875c0,-1.48427 1.20323,-2.6875 2.6875,-2.6875c1.48357,0.00167 2.68583,1.20393 2.6875,2.6875zM16.125,91.375v-16.125h139.75v16.125zM55.09375,48.375h2.6875c0.48925,-0.00118 0.9769,-0.05581 1.45427,-0.16293c0.57395,3.20098 3.35621,5.53261 6.60823,5.53793h2.6875c3.7089,-0.00426 6.71449,-3.00985 6.71875,-6.71875v-4.03125h21.5v4.03125c0.00426,3.7089 3.00985,6.71449 6.71875,6.71875h2.6875c3.25202,-0.00532 6.03428,-2.33695 6.60823,-5.53793c0.47738,0.10712 0.96503,0.16175 1.45427,0.16293h2.6875c3.7089,-0.00426 6.71449,-3.00985 6.71875,-6.71875v-13.4375c-0.00426,-3.7089 -3.00985,-6.71449 -6.71875,-6.71875h-2.6875c-0.48925,0.00118 -0.9769,0.05581 -1.45427,0.16293c-0.57395,-3.20098 -3.35621,-5.53261 -6.60823,-5.53793h-2.6875c-3.7089,0.00426 -6.71449,3.00985 -6.71875,6.71875v4.03125h-21.5v-4.03125c-0.00426,-3.7089 -3.00985,-6.71449 -6.71875,-6.71875h-2.6875c-3.25202,0.00532 -6.03428,2.33695 -6.60823,5.53793c-0.47738,-0.10712 -0.96503,-0.16175 -1.45427,-0.16293h-2.6875c-3.7089,0.00426 -6.71449,3.00985 -6.71875,6.71875v13.4375c0.00426,3.7089 3.00985,6.71449 6.71875,6.71875zM112.875,28.21875c0,-0.74213 0.60162,-1.34375 1.34375,-1.34375h2.6875c0.74213,0 1.34375,0.60162 1.34375,1.34375v13.4375c0,0.74213 -0.60162,1.34375 -1.34375,1.34375h-2.6875c-0.74213,0 -1.34375,-0.60162 -1.34375,-1.34375zM102.125,40.3125v-17.46875c0,-0.74213 0.60162,-1.34375 1.34375,-1.34375h2.6875c0.74213,0 1.34375,0.60162 1.34375,1.34375v24.1875c0,0.74213 -0.60162,1.34375 -1.34375,1.34375h-2.6875c-0.74213,0 -1.34375,-0.60162 -1.34375,-1.34375zM75.25,32.25h21.5v5.375h-21.5zM64.5,41.65625v-18.8125c0,-0.74213 0.60162,-1.34375 1.34375,-1.34375h2.6875c0.74213,0 1.34375,0.60162 1.34375,1.34375v24.1875c0,0.74213 -0.60162,1.34375 -1.34375,1.34375h-2.6875c-0.74213,0 -1.34375,-0.60162 -1.34375,-1.34375zM53.75,28.21875c0,-0.74213 0.60162,-1.34375 1.34375,-1.34375h2.6875c0.74213,0 1.34375,0.60162 1.34375,1.34375v13.4375c0,0.74213 -0.60162,1.34375 -1.34375,1.34375h-2.6875c-0.74213,0 -1.34375,-0.60162 -1.34375,-1.34375zM43,131.6875h-5.375v-5.375h5.375zM64.5,131.6875h-5.375v-5.375h5.375z"></path></g></g></svg>